<mxfile host="app.diagrams.net" modified="2023-10-07T00:58:27.690Z" agent="Mozilla/5.0 (Windows NT 10.0; Win64; x64) AppleWebKit/537.36 (KHTML, like Gecko) Chrome/117.0.0.0 Safari/537.36 Edg/117.0.2045.47" etag="akBebAqibTRlqi5rPERb" version="22.0.4" type="github">
  <diagram name="第 1 页" id="Rri8mAdm3nu4AeX7JRYc">
    <mxGraphModel dx="788" dy="452" grid="1" gridSize="10" guides="1" tooltips="1" connect="1" arrows="1" fold="1" page="1" pageScale="1" pageWidth="827" pageHeight="1169" math="0" shadow="0">
      <root>
        <mxCell id="0" />
        <mxCell id="1" parent="0" />
        <mxCell id="hXcTpnnIc0UGJTCYGPH8-1" value="" style="rounded=0;whiteSpace=wrap;html=1;fillColor=none;" parent="1" vertex="1">
          <mxGeometry x="60" y="270" width="370" height="200" as="geometry" />
        </mxCell>
        <mxCell id="aeSpP7B6ITR-l4-PSbJp-4" value="" style="group" parent="1" vertex="1" connectable="0">
          <mxGeometry x="60" y="490" width="104.85" height="77" as="geometry" />
        </mxCell>
        <mxCell id="aeSpP7B6ITR-l4-PSbJp-2" value="" style="shape=image;verticalLabelPosition=bottom;labelBackgroundColor=default;verticalAlign=top;aspect=fixed;imageAspect=0;image=data:image/png,iVBORw0KGgoAAAANSUhEUgAAAPwAAACJCAYAAAAIRFUVAAAgAElEQVR4Ae2dB7wVxfXH9fP/pBkTEzVRwQIiHeUB0kGKYANRipFirLEiwYaCAg8UhSfYFRUEBESa0gQUFAQL8AQFC2LEFrtYQCOQYjL/z/fArHPPu3d39t6L3oc7n899u2fnnDOzc+Y3dd+cPYwx5r///S+XIMSlA8GdN3HlNb/Wp2nNH0Vr+UKk8/0OUfqi4nUZRfHHjc9Vv5aPS+v8xpX34c93GlpfGP3RRx+ZBkc3MHvssYf8evXqZf71r3+ZPch4mKBPvH75fOvLVb+WL0Q6qszi5jlKX1S8Ti+KP258rvq1fFxa5zeuvA9/vtPQ+sLo//3vf2bxk4vNz3/+cwH8L3/5S/PYY48lgPcx3A/BE2a8bNKP0hcVr9OM4o8bn6t+LR+X1vmNK+/Dn+80tL4o+ttvvzUnnnhi0MufdNJJCeB9DPdD8EQZL24eovRFxev0ovjjxueqX8vHpXV+48r78Oc7Da3Phy5ducr87ne/C3r5lCH9xrfeNrNmzzOPzplnZs19LPhF0S4v91H8UfFan6aj5HW8li9EWudZ03HzrOVdevbcx8ycOfPMnBAb6/RceeJypXPVr+Xj0jr/ceV9+POdhtbnQz86a57p3qOX2XPPPXf09LRUtqVYsWKVGfvAg2bFilKzcuULwS+Kdnm5j+KPitf6NB0lr+O1fCHSOs+ajptnLe/Ss2bNM0OG3Wxmzpyd0cY6PVeeuFzpXPVr+bi0zn9ceR/+fKeh9fnQ4x98yMyaM8/UrVu3LOBXriw1c+cuCBoAO2yxDUIm2j631yj+qHirJ9M1Sl7HZ9JTSM91njUdN69a3qXXrXvFDLlxpCl94cVArRsfPHRudHyutKNabuPq0/JxaZ1eXHkf/nynofX50AsWPG6WP7fCTJ8+3fzf//1f6hw+AbyPGXcNT5Tx4qYapi8B/Pej2rjlGodf2yCObDperc+HtoDfvn276dixYwL4dAX7YzyLMl7cPIXpSwD/0wM89WHp0qUJ4OMCaVfxhwE0mzTD9CWA/+kBnn15tulSVumTIX020MqPTBhAs0khTF8C+J8e4KlDgD4BfDZo2gUyYQDNJrkwfQngf5qApx4lgM8GTbtAJgyg2SQXpi8BfAJ4qVM/lSE9YPjPf/4jQ5wwMMEDL0OhXR3CAJpN2mH6EsAngJc69VMB/MKFC02XLl3MM888EwrmSy65xMycOTOUJxswppMJA2g6/qhnYfoSwCeAl/rzUwH8PffcY/bcY0/TqFEj8/HHH2fETo0a1c1NN92UAN75GtMWVliDAk9UvNVjr1H8Ot7KZXvNt750+ch3GlqfD2334W3+fpJzeABfsUJFc/TRR5trr73W/Pvf/7blkXKtUb1GAvidJeJTudzCi+J3ebmP4tfxWj4unW996dLPdxpanw+9SwHPXJcvev75z3+mvD8Z47dt2zbz3XffpRgX/k8//dTwD/tfffWVxKcI7ySQ/2rzZvPhhx9Kr4ycDcSRNv/gT9qk8Y9//EP0Mg/XAcBXq1bNzJkzx1StWtUsXrw4bS+erocnHdLYtGmT5OXzzz+XdN00yA/5Ix80JvDyflu2bAnenbgvv/wy0KEbHfedPvvsM+GDHzmfgLwbXLo8DukpT+yrg61z2s7wfvHFF+bDjz40n3/xhdgBXhtsefDsm2++Efsw2mOv2uWDH92kz3PqMPU1XV6sbnu1aVg616vW50PvUsBTafv162dmzJiR8m5kjEr75z//2bz00ktS6Sm8NatXm27dupl69eqZ2rVryxB70MCB5qsvv0yRB7wlJSWmabNmpmbNmqZWrVqmc+fOZtWqVWIE9PMbM2aMGTjwOgHwMcccY5o3by5gS1FmjLGAp/EYOnSoadmypRhR89WonjqkJ88vvPCC6dWzpzm6YUPJR/369c0555xjNm7cGFQUAM6zJUuWmMsuv9zUb9DA1KhR0zRr1kzWBDZv2WKuv/56ed8aNWrIPzaMHj06ZaTB+6xfv96cccYZpqioyMDHiKR///6GRiYqIO8Gly6PgL/rrrvMHXfc4b6S3ANG1lrmz58fxL3zzjvmggsuMA2xUe1aUm5/+ctfzN///vfARpQHoJ04caJp3bq1qVOntpRx+/btzaxZswTkViEdAvLUt1NOOcUcWaeOeeWVV2x0xqtb5hmZYkRofT70LgU8Bcg/3N95550pr0HGPvjgAwHr008/LeCkNW3cqJG56OKLzGuvvSbGYDGtfr16ZkD//kHlp0e79NJLxRgYAj1r1qwxffv2NVWqVBFZ9PNjeN64cSPTpEkTM2jQILNs2bK0LbEFPHlgVNGmdRtz3XXXleGt7gzpAfu7775rjjjiCHNZ377mtVdelbyUlpZKJeh08snSC/DiNCQ0SlSkyy+/XBo5GoQbb7xRRhTnnXee6d6ju3n22WdFJw3kIYccYkpfKA0qJDoAeffu3c26deuEb8GCBaZp02bmrLPOCtJKKWiHCKsM5RHwlCP1QAc6mRYtmpoHHnhAohh90RlQD7EN9eX5558Xmm/Jbc9MvaKDOOSQgw2NLY0EIGbNpnLlymbu3LmBLaZMmSJ2b9v2WGlIsMPXX3+ts1KG1jYowxDzgdbnQxcM4Pmul4J9fcPrAlb77hRm48aNg16MVhUw0LMCOgIviuGo+KeffroMc3kG4Pfaay8zfvz4FJ1Wt726gOfZ8uXLTaXKlQyNkU2D59Vr1Azm8DynMjRr1jyoNFYfgKxUqZJUGp4BVhqj7t1PT5nebN68WRq9orp1zceffL9YSN67du1qbrjhBsk3afXp+1dzwgknlAH2m2++KbppHMNCWGUov4DvU+aVAXwzB/AA98ADDxSbusxvvfWW2Ijyo3wZlmOzmTNTR6M0BCU332xatGghQ310AHj+0+yaa65JsaerP929tkE6njjPtD4fumAAv3LlSnPQgQea8ePGma+//iYAGnMkWlq7DsBQiqmAO8e1L/r4E4+bChUrylyYZwCeoTO9dljQgEe2uHiwad2qVdDQIF+9xveLdlSSl19+WXprqxs58vncc8+ZChUqyMiDOABfvXp1M3nyZMsqV+mNWh1jrrziijINEiMWhqFUOIbsf/jDH2SEkqLAGCkHGrqLL75YR6XQtozsQ5fe3QDftGnzoIen7A877DBTXDw0qBeUAeVKvWJ6iC3H3HefOfLII8s03vDSOBx++OGBPQH8H/74R7G/LU+fq1vmPvxRPFqfD10wgGdxZODAgaZixYrm+OOPl+EuQ1zAikEIXJm30tMNHjzYFBcXy8/eM3fbe++9Da02Lw/gjzvuuMiFLQ140iJd5v3Mre0CkDukt/mhlyaft956q7niiiukZ2YN4ve//31QQah0derUkX1+eZGdfwB8q7aty0x5iEYXDRsVc93LL5tf/OIX5sorrwze2b578eBi07LlMVImtpzcNOx9WGUot4Dvk76HdwHPe99///3m0EMPlTWTAQMGmCcef1x6dFsmlBsdCdOuIUOGlClj1qEOOOAAWdSlPAE8a0csmsYJNr04MmG8Wp8P/aMBngUTej07h+fFAAC9I8BnzsXCHZX5iSeeENBR+QETgGc4ZX9XX311cA/IP/nkkwDwzN90QehCTAd4eJjzVz68cvBBjgt4KsnatWtN27ZtTdOmTQWcpM3ckWkIc3vWFggA/qijjpK5o5s278so4t5773Ufy70LePRwymifPn2C97Tvbq/33Xdf6HvqMnDp8gr4Pn3KzuEZYTEFtHN4CpN3pTe/+eab5QMrFtk48YWpHvzYklES9c2Wp76yOIq9CQCeekgnFSe4ZR5HLhOv1udD/yCAv+2221LyTMZYmGMubgG/detWWfig8InHECyKDR40RPhefHHHaSyctMmCmvty9h4AsdVFj8wzAMhc2ManZMIhMgEeOVp3FtvoyWmg7Ic3pEHFOvfcc2W7h3zbIIt5VfwA36pVm0jAo+/Xv/61jFxsGvZKupRdVOXTZeDS5RXwjOjccqdM2HoDuBbw1CNsZ98Xu9EhAPY//vGPspqPDkaJ7dq1s8WackWWRTk70gPwDerXN1sTwKeUk/TYf/rTn2Qo6sZQgMxnf/vb3waAf+SRR2TBjaG0NQ4yGJD5EwYiAHa2V9xVUfgx2rRp08xpp50mlZ9nuQKe9Jg/s8o/bNgw2au3gKfS7LPPPmbFypWSL/uHfHD+9/777Z+3Hp51DBb9mDboQNxFF11kRt87Wkel0G6ZEuHS5RHwbJ9iaxp5N7ACz6msFvCszJ90Ugfz/vvvu2xSX1q1amUYHWIzzminAWAVX4fVq1ebDh06mPfee0+iAHz9+g3Mt99u1ayhtFvmoYyekVqfD71Le3gycMttt5nadY6U3pohOa0kw6uGjRqlAJ5CZZUUQ9FjYQSMiSEOOuigYJV1w4YN5uCDD5b9Z0APHyv0rIzTsrPVRbr80gHeDu1oSGzI1MPb+CefekrmgPSyFvB8eAEIS0aWSPqkR2/C7kGLli3Mvvvua1iI5HnYkL5Vm+ghPfkYNWqUlMNTTz0VjGDo1e+5+26ZPvBeYYF8uMGlyyPgH3/8cSl/AE694gcgu3XtZn72s58FgKdhZjpFR0F94b3h5ZsG6hEdD3Vo8+YtMkxn25PtWcvHKj/bd4zksC8hAbyqTG7F4gMb5twU+sW9e5uzzjrbNGnaxLB44s7haQjuvvtueXZqp04yKuAjE+SGDx8eFDbGYTTAnjQt9FVXXSXzr+rVq5nevXvLqivG4gfg+ZCHexsefvhhWRhkYc8GAE9eMHS6QAVhaM9WjAU8+XjooYek0v2pWzdZZGO9gO0bPghhcfHkk0+WeTuAZ85I5XSDzOFbt047pGeBzi7aIcNqMivxNIo8J54FSVaWff6hxy0D9Ll0eQQ8OzmMbLAbYOSetRT25+sV1QsAj53YQ6ec2h3bTuLZ/TjqqLqG7x8oV1serJU0aNBAfnaXBLthV3eEAOCPbtAgGdJLyak/FDjD9KlTp8rqJx/h8HUdBU0PyEqnrXwAi56aBSj2oMeOHSujAT1sQyfz2gcffFBWVWkoWOyzH1GgDx62U1599dVAP1ljvxVeRhE2MIxbsWJF0KjY5+6VtQHWG0gX3QTyy9YcX32xmk9vQS/Dc96Rr7aoKPQMDC3R4Qb4XnzxJRkBuM+5p0FincOWDVf0UGa33HKLGTr0emlweEfLo3W4tOZx6fIIePLPCGfBgoXmhhuGmZEjR8riKnZds3qNfBpr3x/et99+W+yDnagvNL5Mh2yAB7tSP+hQ4KOcFy1aFOy/W15GDYzk7JzePo+6umUexesTr/X50Lt0SG8z7ZMRy8tV87tx6e41fxSdTkehPcv3O4TpK6+Az6fNdPnkU7fVle80tD4fOgG8tUaBXaOMFze7YfoSwMfvZOKWP/zaBtnocGW0Ph86AbxbggV0H2W8uFkN05cAPv9gTGcfbYN0PHGeaX0+dAL4OCX8A/JGGS9uVsL0JYBPAC/16ady4k1c8PwQ/GEAzSb9MH0J4BPAJ4DPBlV5lAkDaDbJhOlLAJ8APgF8NqjKo0wYQLNJJkxfAvgE8AHgH5oyzbz17rvm7ffeC35RtMvLfRR/VLzWp+koeR2v5QuR1nnWdNw8a3mXXrJkmbiLfnzRkow21um58sTlSueqX8vHpXX+48r78Oc7Da3Ph54241HxHms7jdRDLFeVihvhocNHmetH3BL8omiXl/so/qh4rU/TUfI6XssXIq3zrOm4edbyLs097qKvv2lkRhvr9Fx54nKlc9Wv5ePSOv9x5X34852G1udDD71pVDjg7x49xixYuMgsfHxx8IuiXV7uo/ij4rU+TUfJ63gtX4i0zrOm4+ZZy7v0pIemCuAnTno4o411eq48cbnSuerX8nFpnf+48j78+U5D6/OhR98/PgTwK0vNnDnz5VNRPju0Pz4JtfdcNe3GpYvX/FG01qfpKHkdr+ULkdZ51nTcPGt5l1679mUB/KrSNYFd3fh0aen4XGmdRlx9Wj4urdOLK+/Dn+80tD4fev78heGAnzt3QZkvhMIWgOzcwL1G8UfFu7rS3UfJ6/h0Ogrtmc6zpuPmV8u7dLJolyzaSX1K9uHjwip//C4g0arpuClpeZdOAJ97+frYwy1zH/4oHq3Ph06+tIsq1R8pPsp4cbMVpi8BfAJ4qU9JDx8XVvnjDwNoNqmE6UsAnwA+AXw2qMqjTBhAs0kmTF8C+ATwCeCzQVUeZcIAmk0yYfoSwCeATwCfDaryKBMG0GySCdOXAD4BfAL4bFDlKcPRSrjMco/Z0qJhANW8PnSYvgTwuQOefXiOJHPPvtN20TbQ8XFprc+HTlbp45ZyjvxUDBxccAgn59FlClHGyySX6XmYvgTwuQOe8wrxTowjykxB2yATn+9zrc+HTgDvW7o58AFyjMEhlK+//rpp06aNHDmdAD5zofpU3szS8WN0ej4asCsHrHLkOefk4w4snRchqyubNKxsuqvW50MXPOApVE4H5crvm2++kQLmxFJogn5RPjFkuMyJuHgdseeJ20JDDh7kuGeIDS+6XV3IWR3wpwvIkxZGp5V35S0/p+lyUipecHCqQcXgrP0E8LaEyl5tOVK+2F+fEGttZ+uGqwEQYndOS8Z/ADrSBZ5zejK2++qr773TWF7idT2xvhDg4QThs8480zRs1ND85je/MXvuuWcCeArGGs8WZBwaY1x22WUCDo6lbte+nZz53r59ezn6GuO6+mgIxo0bZ3BJhSsohlnnX3C+HFdtDU8lueP228U54JOLnzSdT+1sGjVqJC6lSINKwjHEPXv2lOfowfOMnnPDx9HU+ME7+uiG4qyQs/D1PI5Kw5nn+MhbvGixKSkpMZUrV0oAbytEmqu1KWWMTwDr182yEs95//gl4GhpAvZlHs2589idc+o5U37evHllPNRgS45Bpx7hQ6BZs2Zy5DmehmygbnGsOsdWP71kiTnllFNMr549g+OtP/zgQznG+olFT8jZ97g7T3r4HAGP00l80OFW6PTTu5s5c+fI+fCcQ04vOX7CeGmFMRIGwkEDzgPGjR8vXl3xFHrOOeeYoqIiOVMePgDfrWtX065de9O+/XFmzJgxohMfeHgZZXiGQwmAyVn006ZOE8+i9NK20QDEONOgx+Zc+meeeUY8kuD5tm2bNhmdWpD+kiVLxIFF0sNbaJW9WsDTA7PegYNONxC//vX1pmq1qkHDiU8AwIsn2MWLFpllTz8tjkMA4owZMwLbUU/wS4cTCzwd4f2XhhtvwTTejAwIjMxO69rV4I0G55GXXnqpmT1rVpnRBrx0NDhNSQCfB8AfeOCB5uSOHWWY5hqd3rRe3boB4Ne9vE5cPLEC7gZ6AAyGMwyCAL5bN3E1hMMIGwAx3m5+9atfmVmzZqWMHMaOfUA82VpnFzgywBeZTuvzTZuk16DRsI2D1W+vCeDLjvps2dirD+BZD6lWrVoA+EmTJomHGdvjowsbMDo74fgTAoeb8+fPl04EJyLWRqS3adMm6SxwQEEQwJ92mtl///2lMad+ZAoJ4J2Sscazj+LQ9PAVKlQwM6ZODYxj9cyePdscdthhwRydHpMW2/UogkGZFjAsx10wwQK+Z88eZYZ6NCKMBpBxA70AlQvd6MTdEy6GbYWxvNATJkyQnkZPASxPAvhdA3imY/TmTMdccOLu7Llnd3gm4jlDc6aJLg91EtsxysNbMHEW8Iz23Dpl7eheE8A7pREH4Ii5/AAeUFt30Y5ag0NBhvvbt6e6DMIVEO6kpkx5WFxWderUyey1116mRAF+yJDiMoAdMmSI+MLTBqYnZ/iOYakMDAcZFjK/0z8cWjLd0HN5m/cE8Kk2tuXiXm0dCB3Sb3jdVK3+fQ/PnP6E448X0DO3pyfHBgzhbUAfHQjxrt3wzweN00lGbjTWFvB9+vSx4hmvCeCdorHGs4/i0AAeB4oMv3TQgKfQhw27QRZrWrduZayr6rFjx5jGjRuZkhEjRIXt4UfspF29AB4nkNu2b3cfy9DdBXzFihVNy+YtTI+evUyPXj1Nz569ZJGPRR0W+y688MKM8/gE8PkB/GvrmcN/D3gMtumzz2QxjjWfo446UqZy559/vgz76cG3fPWV2W/ffU3btm1lAQ5b8evRY8eVe9YAqEsW8IMGDUqpC+mIBPBOqcQBOGIuvw/gt23b4V769ttvl1546dKlst1i9dCq42l1eEl+AE/FYVUfL7GkoX+MANjSs+k7RSG3CeBTbazLx60Dtoent3YDZYudKx9eOQAzALW9OTb49JNPhIchfNNmzWQ1n1V/FgFZpHPtRicAzRU93FvA0wlEhQTwTglReG6IQ3sBfus2GWZjWIZfWj9zuDp16hjbo0f28J3Ce3jehfk7UwUqlhtoDFjJ7X9N/2BtwY3nPgG8P+ABEguuANQN2HBESYmpWPFgATw2pwHG66sFveVnOrjf/vuLh2Ds1aVzZ3P22WenrLYjz4+Fv+Li4gD4jBQSwEcA2Ba0vWoAxqF9AL9121YxFttvgNCdf7PFUlw8xPzyV78SP/PkKR+AX7x4sdlnn30M/ubRR+C9WDlma8j6kbdl4F4TwPsDHvCyQNqjVw+zbaeLbxpVpnhHHnWUYWpltzcBa9WqR5jVq1cHjT42mTZtmszb169fL2Zgvs7K+5w5cwI+GoJXXnnFVK1a1dxzzz3Cl/TwO2ttFGDdys19FH9YPHur7I3jN16HhQsWiMHtkB4f78z3Tz/9dMPwfuDAgbJFduaZZ5pTO58qq6/Tp0+XHqBLly5m+E3DtUozePBg06FDhzJzeKubISYBkANqtgzpLfhA45prrpFtoV69epXZQnQTeuqpp2RhaePGje7jlPuwMklh9CTC9BXyt/SAm4+W2CHp2rmLGVlSIt9a8FEN++JVqlQxthz5Cu68886TbyZYlKMO9O3bVxZYhw8fLkN0igsgXztggKlw0EHmwosuEdtddXU/Gerz0Y7tMJiWUU/o8aMC9eLII49MvqWnoMIqW1Q8n7vy0QSfuOrACiwAxoBWDy0/+67nnnuuufrqq2Wl9uuvvzFvvPGGAJS5IK05vewraRYC2Zfn6zvba9s02dulZ7Bp8Zzeh+264sHF5pxzz5UVXnoN8hwWPvroI9FFBc0Uososk1ym52H6ChnwvA95f/XVV6UxpnFlJX358uWyb87KuluOlP2jjz4qX+excHrDDTeIjfTn1dDUAXSdc/bZhoW5xx57LOVrSuoJjbP7rUam8qUusE28YcOGTCxlcJCR0TMizKaoSBdf8N/S+7y7fjEMBWDtc3ult9gVAf1uevlIw+bZ6tK0fe571fIuXeiA5x3JLz9bzm7+05UB8dSDKJsTDx+/XR2i8hw3fa3Ph94tAR/14nEL9sfgz/c7hOkrL4B37aDfx43L5j7f+tLlId9paH0+dAL4dJYpgGdRxoubxTB9CeDLDn/jlq8Pv7aBj0wYj9bnQyeADyvRHzEuynhxsxamLwF8AnipT8kx1XFhlT/+MIBmk0qYvgTwCeATwGeDqjzKhAE0m2TC9CWATwAfAP7+MRPM8uXPmmeeeS74RdEuL/dR/FHxWp+mo+R1vJYvRFrnWdNx86zlXXr6jNniTPLhaY9ktLFOz5UnLlc6V/1aPi6t8x9X3oc/32lofT702HETQ5xJrio1t9852kyfOcvMeGR28IuiXV7uo/ij4rU+TUfJ63gtX4i0zrOm4+ZZy7v0mHETBfD3j52Q0cY6PVeeuFzpXPVr+bi0zn9ceR/+fKeh9fnQd909Jhzww4bfYm6+5U4z8ta7gl8U7fJyH8UfFa/1aTpKXsdr+UKkdZ41HTfPWt6lR4y8XQA//ObbMtpYp+fKE5crnat+LR+X1vmPK+/Dn+80tL5o+i5zY8ltIYBfWWpmzZor/yrI54b2xz802Huumnbj0sVr/iha69N0lLyO1/KFSOs8azpunrW8S69e/ZIA/rnnVwV2dePTpaXjc6V1GnH1afm4tE4vrrwPf77T0Pp86Hnz5ocDPvEPn80SWe4yYYts2WgP05cs2iWLdsGiXQL4bOCVu0wYQLPRHqYvAXwC+ATw2aAqjzJhAM0mmTB9CeATwCeAzwZVeZQJA2g2yYTpSwCfAD4BfDaoyqNMGECzSSZMXwL4BPAJ4LNBlYcM/44J+DQAtaiO17Tmj6K1vEsngM8N8K5Nw/4d1y3zKHv5xGt9PnTyzzM+JZsHHozBUUx4zLnooovkdBy8qbCdk66SRBkvbpbC9CWAzw7w2I3DN6ZOm2r6XtbX9O7d29x///1yWrGPTePaUPOH2RTedPEJ4HUp7gKagucQxqpHHCEedDhlhRN5Dj74YPF0o51eZDJWLllLZ3yrLwF8WXDYsgm7crpNu3btxMXU5Zdfbq666kpxYsKBqXgm0qDXNgjT7ROn9fnQCeB9SjZHHs7jw5kGp+bao5aoDDjLAPQcw6RPXIkyXtwshelLAB8f8Hzkwom2xx57rDi1tPb44ssvxa8Bno6sjzobp21gn2d71fp86IIHPEDA5xdHG+ENBPAsW7bMcAKpHQ67LwqQMAatLw4e8Rjz8UcfpQAKHtwJc/AgZ9Rt/Nvf5Iw0zsPjGfGkx4m5nJ2GW2D4ee4GaPJAWk8/vUxcHHH2nstH3jhbj5Ns0eEG+Bjet2zZMuVcNnjcd0pHu3p87sP0FTLgyTceXSlnN/AcGxHnNpbcc2YgNuO8QaZRtpF15bmnPnFWHg5DcU+Fu283YB+eUZ+knmzcKF5sSZdDTQ844ADD6cU6LFq0SHwcotMN2gZuXDb3Wp8PXfCAx31Qw4YNzZNPPinDX4ZLnA5Kj4mXEIbD9kUx0N/+9jdz8smd5ARSzjOvVbu2qV2rlnj1xFAErgypb7zpJtO/f3855RTPn5x4i6dQKgxz7Vq1aklaeJxp1aqVeJ+1YOZKg0Arf8QRR+sZR1sAABbgSURBVJi6dYvECQbA5jBEmycqGyencqKtWzGtgTlwk3dy3RQTZ+Utn6btc9+rlnfpQgY8DTCun7G/G8g/tub02nfeeUeisCsuoCnPOnWOlKE2x07TqOpDUN98802pJ8QX1a0rpwjTK9PAWxtjO+oJpxNzci1uzU486URpKLAxzk3SuROj48BdVTqPt+475Hrv2hBdPnTBAx5Q4QsMI44ePdrgVALvIfgLx+kjjicskDixFJe/HFX89ttvS6tMrzpx4kRT6bDDpBWnYKgY3bp1M4dXqSILLRifHmTd2rWmdu3acpw17qY435zW/YMPPhAHhCzK2LToHdq0aSPPGW1QOcgrw3aOVLZeZak88JJnHdDdsWNHOVZbx0cZT+uKosP0FTrgM7uLfj3F1VRpaampcngVM2XyZBkxYVOeNWzYSE68tbajk8BzEJ6CGQH8+1//MhyHDqjpSNavf02Kk16dBr1JkyZSJwDwu+++K8AijsYoXbmycMdUjXrlBs3rxmVzr/X50OUC8Jz9zjnj2qMIDgMAl+25mRPTYgNQN2zevMU0a95M/MDz3AK+fv36ZXpWzjrHSQGttBto0WlgLDDHjx8vaememYpwwUUXiGcaW8FcPfb+m2/+Ya6/fphUMIafOkQZT/NH0WH6yivgtbvo++67L63n36lTp5nOnbvI8eE0wLiDxvbuFIvywXacQ9+nz6XSy1vAM3THSUVUoF4xEsGDbXHx0KBeWjltA/s826vW50OXC8DTWqabK1k/3xaE9PAM7yh4DIvBWDjhXHG8vY5QvuV69760TAtNK497YH22PKBk6E6vjG5WZwcMGCDyFLT7mz1ntvBu2Zw6J8Sw//nuO2lMmDocTm80ZWowanANH2U8l9fnPkzf7gJ46gOdAx0BHoRtg0tHYddmqBMM3ZmyEW/tRp3hfvLEyTIVYMRmAd+1a1eJCytnRp64I8dpyiWXXJzSmFg5bQP7PNur1udDlwvAM7dmCK+D9R677dsdCzoAkQU+HAIwZ+7Spat4CWUNALdQJQrwrI7rgB+xjnieUYtE2l00Qz/mj93xPtqjl+nes7vp1au76dmjhzn++ONlvmfnljYNGh96FxqOU0891ZSWvpCxIkUZz+r0vYbpK7+AX2+qVasauJpi6sSUivKlB8cLLG6m7DCcsmLffL/99jOtWx9jeorHWGzHr4fQbY49VhbjaPAt4K/q1y9jMdOY4KyCqWTdunXNg5MeDEaBWkjbQMfHpbU+H7rcAF4PsSkcC/hvt+/odZm30zs3b9bM3HTjjWbq1KmyCMNcqn379t7OJDt5uItmIe+vf/2reJDBI43+zZs3L2WUwOIO7qtZ1MOTDpUzLEQZL0w2XVyYvvIKeHZsmMJZ33K8N7029QDbYx8ae9Z/oOnFATJDdBZrXZthE0vPnTtX1mQs4DM5k2Rkedttt8noEbdmTCXpdDIFbYNMfL7PtT4fercA/Nbt26SnZAEPwOsVWebLLLB5e489+eQyrbTbw2NU/IvjqTRdoBdhEcgOKakI+KvD2SULez4hyng+OlyeMH2FDviaNWsaQOgG3odnjLQAPDZhR4cdFgs6royqSkpKZMTFqj4gbtCggfiTs3zoteXDvB4bQYcBniE/q/c0KLisojGJCjaNKD7feK3Ph94tAL9t+1YBFyveV15xRWA8W3As7rAOgHthAsZhld42AJaPK605K/Tb1Kq6C3j46CHYHmRu6AZ0sw7AliEVhh89DV5t3UUiVybdfZTx0smEPQvTV8iAZyTE1Omuu+5KeT0Ad8kllwTeYwHv4MHFsjjHOosbGB3uv99+sncO38UXXyzfPri2o3ywHZ3GX/5yvtSnMMA/8cQTsvXLQrHbcLjp6nttAx0fl9b6fOjdAvDbt38rIB84aJCs0gJwjM72Cx/fAOB999tPHAZiZOZdoYD38A+Px9JKlSrLPJEhJBWThRu2AJlDzps7T+xHj0MPhXdZphbpfgz37WjAGj3KeJbP9xqmr5ABT7kMGVIsPSnAZUiOY0/22xnOszduh/R8aFO58uGyaAcPNqH8beNsd29YD0KOz2HpzeGDn1V+OoalS5+WYs0EePJEI37iiSfKR1fpbEr9sIvJ1kbaBvZ5tletz4cueMC///4HpqionnnttR17o27hsAVCL2vdRbMyy4oqAGPITc/QvEVzM37CBOl1qSAMwwE8XkhxJ6wDwz8W3rSx+GqKhSDbe9CqP/fc86ZZkyamTu3apm3bNqZx44aycMOWnR3iURnYRyZPRXWLTN0ifvWCez76wP+53hWIMp7OdxQdpq+QAc970ZDiApwtWBbH2ENv3/44M2XKFFlxp8ElUOYTJ00UG7BWwmevDLmR4etMWwbYjrpDHAtt1BV08qEW3mgtH6MI6okeCVI3cEF+WKVK8sFVUVHdnXYtEn3QTBv0upPVG2Ur33itz4cueMADTgxK4esA+GjdLbiI5xlbaLhtXrp0qfznEi0ygAK0zK0xOPO9dP+0wr46cbrwWLUnH+5z9KDj+eeek50BvtLSCzdUDkCPu+oNG3b+7P0bb5g3NmyQXibp4VOt65YzMbj8Zvg8+9FHzbJly+X7CeoEOyH0xDYgR6/NyjlzfOqC/tzZ8rKjg80AOSPBjz/+2EbJFV3UBf2tBc+x84addnzjjQ3f23bDBrPhjQ3yFaDe6dHvlJJYFoTW50MXPOB9ysHnRX30FBJP1DvFzWuYvkLv4XnXsPzHLYt0/Fp/Op5cn+U7Da3Ph04An6sVd5F8lPHiJhumLwF82QYlbvn68Gsb+MiE8Wh9PnQC+LAS/RHjoowXN2th+hLAJ4CX+pR4j40Lq/zxhwE0m1TC9CWATwCfAD4bVOVRJgyg2SQTpi8BfAL4BPDZoCqPMmEAzSaZMH0J4BPAB4CfPv1Rs2nTF+bzz78MflG0y8t9FH9UvNan6Sh5Ha/lC5HWedZ03DxreZfGp9yQG0eap59+NqONdXquPHG50rnq1/JxaZ3/uPI+/PlOQ+vzoWfNeizEt9yqUjP0ppHmxhG3mJtKbg1+UbTLy30Uf1S81qfpKHkdr+ULkdZ51nTcPGt5lx424hYB/LDhozLaWKfnyhOXK52rfi0fl9b5jyvvw5/vNLS+aPpWc/2IW8MBf/ud95mZM+eYRx6ZG/yiaJeX+yj+qHitT9NR8jpeyxcirfOs6bh51vIu/cD4SQL4MQ9MzGhjnZ4rT1yudK76tXxcWuc/rrwPf77T0Pp86DtD/cOvLDVz5syXL9mYA9ofX7bZe66aduPSxWv+KFrr03SUvI7X8oVI6zxrOm6etbxLr137sgB+1QtrAru68enS0vG50jqNuPq0fFxapxdX3oc/32lofT70/PkLQ3r4laUm8R6bzRJZ7jJUIDdo2o3zudfyLp0s2iWLdlKHkn14HyjtGh4XkKSg6bipanmXTgCfe/n62MMtcx/+KB6tz4dOvrSLKtUfKT7KeHGzFaYvAXwCeKlPSQ8fF1b54w8DaDaphOlLAJ8APgF8NqjKo0wYQLNJJkxfAvgE8Angs0FVHmXCAJpNMmH6EsAngE8Anw2qImQ45ILDGjgYgYM9OEAjUwgDaCaZsOdh+hLAZw94yhVbchgHttUHmbg20TZw47K51/p86GTRLpuSjikDsHFHhVcbjsvGV9pJJ50kR2xpD6NWdZTxLJ/vNUxfAvjsAM+hpLfeequ4C8MhKEdqcdYdtk7XmGsb+NouE5/W50MngM9Umnl8znl8NWrUNB06dJSzzzl6i1NYOS+ds9HsOXluklHGc3l97sP0JYCPD3gOQ+W8Ow4sveOOO+Q4tUcfeUQcjPAMr7Qa9NoGPnYL49H6fOhyCXgK0i3MTC9q+XR8ukK0vDou03OXz/Jw1YFhHh5QOChRn5ePm2K8jHKumg46z5rW/FG0lnfp3RHw1iZR5UI8vG55hMlYG+NoBCen2NANuJfm8FQ8BuvhvW8arr6we63Phy54wHMIJMcPcwjl+x+8b/DMed111xlOhuWAQW0sXpqDKidNmmSGDh0qTgieXPJUiqcXeDhRlAMQOYRy+vTpcqotxxTjlgidpIdROaeek2zxcqILFD4OMyQtPI8wvHvxxRdlTmcNxUGJnIh677332UfBldNYq1SpIl5Rgoc7b3Ramtb8UbSWd+lCBjyfi3J4JeXoBvJPL/v888+n2JYjpznAEt9xuBKbOXOG+eyzT1M6CPQgz/HgDzzwgLnuuoHiQQaHkS5I4aGecFAqjfWMmTPMA+PGyVwd3wO4FEs3OrN+CNzDNW2a7jvkeu/aMJ3+dPEFD3hOIMW7COe6t2rVWryyXnbZZTIP5ojqV195NQAiL4hDQVw+d+hwknicveCCC+R4Y67WOFQijrPGIcEpp5xiTjjhBINOvNNwVDENTK9evUyLFi2lpeYMe/zb8dy28FyfemqppMXcrV+/fqITF1Q0EvaUXRZ01r+2vkzvjoGoYLwbenVIZyzNE4cO01fIgKfh5Xhq7OoG3uf19etN1SOOMJwBT6ABwDkFR4JzvaxvX3H1zJrJhg0bUmzHibY4GOVseWxHPcDGuI6ifhAALPWE3hqvsniFxdc8nRANvT7FGBnsji7qk9t4EKdtIInk8Efr86HLBeAPOugg8eiJv3b7Uhj3lFNPNR07dAwK9sMPPzKHHnqY+JG3RgOYOB6gJ120aJEUL3GAGB9jY8aOEcMSgYsoht4VK1YU5wWkQcBwV199tRjf6sXBARWAM8upAJaPIR4VCRfFtnGQyJ1DR3TSW9Ez4X6qV68zypxJD799Tyurafvc96rlXbqQAU95ZfIPr91FL1y4UObU2NuWPQ0GPv3OPvvMwM64nMLGrKPQIBOwK95kKh50kMEPPAHA4x8eO1944YXikdYtN2HaCXJGADQ8jD5r1aqV1vlpOlmrI5ur1udDlwvA4wKY4bJ+ocmTJxt6VDt04gxyQKTnylu2fC2uhVhcIVjAA26GgG7ADz0tPSMLN+A/jJGDBTfTBXoOm7blpXEgjnzoOFr/3r17yyhi7733liu9vK2cVgdX/a6adnl97rW8S+8ugB89erQ4JsGLjBsYQdGL03hQ1ldccYXYx47C4KU8sB2upnDlzb0FPItwn3z6iasy5Z5z7Zm3M6fHS/GECROChsRldMvcfZ7tvdbnQ5cLwOMWiHmcDrToxG3fvsNdNEbCiACa7S5Au27tWvPgxAdlccx6ELGAp9fWYGM4zhDdDv9tmq5vOdJhXj5o0CAZ2jG8c3+sCZAvPe/87r/fmbXr1spIgwasSZMmplmzZuK0wKZjr1HGs3y+1zB95RXw619/3VStVi1wNVVaWiodAJ58ADnAtz24LSfqR80aNc0to0al2Iz5PDbEhRU9Og27BTyr8bqeWH1cWUti5wUPtTQWuKtiXYd64gZtAzcum3utz4cuF4Cnx2XRTAfrLnr71h2A54VZNGO/m/k47obqFdWTOTo6RoxIdSY5fPhwrdLLmSSGpDXHdRWg1T/WAdhy0/7hdWJUMhoO8ksj5IYo47m8Pvdh+sor4PWQHrsAvOOOO06mcNgBx5DUEzsyoyPY9/f7mlo1a6bYrXHjxkIXFRWZatWryTTLAv7aa6/1KWLhoUEZMGCAqVq1mvi1cwW1Ddy4bO61Ph+63ABe++migCzgt27fKi0wTgBZBLvyyivF8FQI/M1t2fy1Of74E8yIkhFSrraHtz2+W9jiPbZTp1DvsVQs5mm4C2Y+mO7Hyi7G/3zTJmmsdE9j0xw2bJhUNLZz3BBlPJfX5z5MX3kFPK7DWJuxziRtOQBubI+/dxbcGJJf2a+fTN8YuR1y8CHicNK1G67ALP3Wxo0pQ3rqhBuwK+sEX23e7D4O7vnugjWCFStWBM+40TZIicyC0Pp86N0D8Fu3S2Ge0bOn6dbttDJz582bt8jQ2RfwnSL8w2MbXFNTmdIFKiCNET0Eq8ssOtGb68Awke08vtJiwdANUcZzeX3uw/QVOuAZLc165JGU1+R9Jk2ebA499FABPDTD+GeWP5MCLBpn/AzyvQOdBg3vMS2PEaeibplwjz1oKBYvXhwKeLZTGxx9tHloypSUPFnixTVrZATIFMMNbnru82zvtT4fercAvPUP37lzZ9lqc1+ce1ZfWUy5eYRfD+8D+LvvvttUqFAx2BKyRqMH6XlGT3P2WWfLMJ0KxJwQN9JuvuCnYahXVCSLfDouirbp+V7D9BUy4Omt27dvZ4qHFKe8Ko14p06dUvzDM1pq3KixeJt1mVnM3X//P4gzUUDN/jzTMRphOzenfFjUYzrAFIvndkifrofHmy0r+Mi4gfz27ftX07hRozLOSrUNXLls7rU+H3r3APzWHUP6e++/TyrAjBkzBIjM59lXbdGiRbA3++5770orH+of3qOHZwjOKj/rBGzjAF4W9i6++BJZzbdTECoNK/9MNUaNGmXWvvSS7Amzsku+WGvQXksxfpTx4laQMH2FDHiAR2PJGgzuodlPB8Dss7N2QmNqh/R46WUOfu6558pwmm0yvMKyY8L/LvDtO4FpHouljKzYfbG2Y3GObzusvkyARwfuplmYRQZX1EwHGGGwT3/ooYdInbCNibWVtoF9nu1V6/OhCx7wGIeW1BrBLRyGTACXORWBLTZ39ZttM4wP8B9++GExMgt1DOtYYX/ooYdcdXLPF3wsulidloF5Gfu51gUwxgSogBk/4+KLvnlz+WCH9NxARePLLyoZDQT8DerXl60idhJ0xUA2yniufp/7MH2FDHjeDbveccedUnYscrZo3tz0v+YaaWD5QIpVcgLlSNmzUs4iHPYH1GzJ6W1WvsZkC861HeDlH19ssPVk3Lhx9lFwZR2IkSMf2eALnnzR2DDK5FNpvQiLoLZBoCzLG63Phy54wGNEWlr9MrYAiWOeZgN8+PNmhZzGAqPxDB5WaAEsOjGIK2fleY6MBiE6SEs/Rwfbb3x1xTYQPOkC8szTqWjwIpOuUlhZ+N2gaTfO517Lu3ShA573o6xsOTOHtjay9nXLgMaaxpiy5tPpdHaGn+fYDHtYna4ebI3+THYiniE8H2HRITFFgM4U3DLPxBPnudbnQxc84H0KwOdFffQUEk/UO8XNa5i+8gD4sPzHLYt0/Fp/Op5cn+U7Da3Ph04An6sVd5F8lPHiJhumLwF8/ofb6eyjbZCOJ84zrc+HTgAfp4R/QN4o48XNSpi+BPAJ4KU+JafWxoVV/vjDAJpNKmH6EsAngE8Anw2q8igTBtBskgnTlwA+AXwC+GxQlUeZMIBmk0yYvgTwCeATwGeDqjzKhAE0m2TC9FnAv/DC998PaH6dpo7Plc5Vv5aPS+v8x5X34c93GlqfD71gwROZnUmuWLHKjBp1h5k06WEzefLU4BdFu7zcR/FHxWt9mo6S1/FavhBpnWdNx82zlnfp0feONYOvH2HuumdMRhvr9Fx54nKlc9Wv5ePSOv9x5X34852G1hdNTzWj7hxtli1/Pmif9uDOthR8lLB69YuGln/16peCXxTt8nIfxR8Vr/VpOkpex2v5QqR1njUdN89aPoVes1Zsu2bnFd0p8Y7tbbo6Plfa6rXXuPqsXLZXnV62esLk8p2G1udFr1lrPvr4+8M8UgBvmwHbAPjSls9e48prfqsn01XzR9GZ9BTS83y/Q5S+qHhdNlH8ceNz1a/l49I6v3HlffjznYbWF5cmzwngfSz3A/BEGS9uFqL0RcXr9KL448bnql/Lx6V1fuPK+/DnOw2tLy5NnhPA+1juB+CJMl7cLETpi4rX6UXxx43PVb+Wj0vr/MaV9+HPdxpaX1yaPP8/8vm753Abpz8AAAAASUVORK5CYII=;" parent="aeSpP7B6ITR-l4-PSbJp-4" vertex="1">
          <mxGeometry y="20" width="104.85" height="57" as="geometry" />
        </mxCell>
        <mxCell id="aeSpP7B6ITR-l4-PSbJp-3" value="OnlineMap" style="text;html=1;strokeColor=none;fillColor=none;align=center;verticalAlign=middle;whiteSpace=wrap;rounded=0;" parent="aeSpP7B6ITR-l4-PSbJp-4" vertex="1">
          <mxGeometry x="22.430000000000007" width="60" height="30" as="geometry" />
        </mxCell>
        <mxCell id="aeSpP7B6ITR-l4-PSbJp-8" value="" style="group" parent="1" vertex="1" connectable="0">
          <mxGeometry x="188.75" y="541" width="112.5" height="43.5" as="geometry" />
        </mxCell>
        <mxCell id="aeSpP7B6ITR-l4-PSbJp-5" value="" style="shape=process;whiteSpace=wrap;html=1;backgroundOutline=1;" parent="aeSpP7B6ITR-l4-PSbJp-8" vertex="1">
          <mxGeometry y="23.5" width="112.5" height="20" as="geometry" />
        </mxCell>
        <mxCell id="aeSpP7B6ITR-l4-PSbJp-6" value="&lt;article data-content=&quot;[{&amp;quot;type&amp;quot;:&amp;quot;block&amp;quot;,&amp;quot;id&amp;quot;:&amp;quot;OJQe-1696595422032&amp;quot;,&amp;quot;name&amp;quot;:&amp;quot;paragraph&amp;quot;,&amp;quot;data&amp;quot;:{},&amp;quot;nodes&amp;quot;:[{&amp;quot;type&amp;quot;:&amp;quot;text&amp;quot;,&amp;quot;id&amp;quot;:&amp;quot;GG8M-1696595422030&amp;quot;,&amp;quot;leaves&amp;quot;:[{&amp;quot;text&amp;quot;:&amp;quot;server.Message&amp;quot;,&amp;quot;marks&amp;quot;:[]}]}],&amp;quot;state&amp;quot;:{}}]&quot;&gt;&lt;div style=&quot;line-height: 1.75; font-size: 14px; text-align: left;&quot;&gt;server.Message&lt;/div&gt;&lt;/article&gt;" style="text;html=1;strokeColor=none;fillColor=none;align=center;verticalAlign=middle;whiteSpace=wrap;rounded=0;" parent="aeSpP7B6ITR-l4-PSbJp-8" vertex="1">
          <mxGeometry x="26.25" width="60" height="30" as="geometry" />
        </mxCell>
      </root>
    </mxGraphModel>
  </diagram>
</mxfile>
